<svg width="151" height="66" viewBox="0 0 151 66" fill="none" xmlns="http://www.w3.org/2000/svg">
<!-- Zeno Logo - Monochrome Light (All white) - For single color print on dark -->
<path d="M0 48.9459V47.8831L18.1335 18.3248H8.10362C6.95229 18.3248 6.0445 18.6348 5.38027 19.2547C4.71604 19.8747 4.09609 20.6939 3.52043 21.7124L1.12919 26.1627H0.464962L0.929923 16.9963H27.4992V17.9263L9.7642 47.6174H20.1926C21.6097 47.6174 22.6503 47.2853 23.3145 46.6211C23.9787 45.9568 24.5987 45.049 25.1744 43.8977L27.4992 38.9824H28.1634L27.5656 48.9459H0Z" fill="#FFFFFF"/>
<path d="M47.3493 16C50.2276 16 52.6853 16.5978 54.7223 17.7934C56.7592 18.9448 58.3091 20.5389 59.3719 22.5759C60.4789 24.5686 61.0325 26.8491 61.0325 29.4175C61.0325 29.9046 61.0103 30.4138 60.966 30.9452C60.9218 31.4323 60.8332 31.8751 60.7003 32.2737H40.9063C40.9505 37.0561 41.7919 40.5101 43.4303 42.6357C45.1131 44.7169 47.5929 45.7576 50.8697 45.7576C53.0838 45.7576 54.8773 45.4033 56.25 44.6948C57.6227 43.9863 58.9069 42.9456 60.1025 41.5729L60.7668 42.1707C59.394 44.6062 57.5563 46.5104 55.2536 47.8831C52.9953 49.2558 50.2719 49.9422 47.0836 49.9422C43.9396 49.9422 41.1498 49.278 38.7143 47.9495C36.2788 46.5768 34.3747 44.6284 33.0019 42.1043C31.6292 39.5802 30.9428 36.569 30.9428 33.0707C30.9428 29.4396 31.7399 26.362 33.334 23.8379C34.9282 21.2696 36.9652 19.3212 39.445 17.9927C41.969 16.6642 44.6038 16 47.3493 16ZM47.15 17.3285C45.8659 17.3285 44.7588 17.727 43.8289 18.5241C42.9432 19.2769 42.2347 20.6496 41.7033 22.6423C41.2162 24.5907 40.9505 27.3584 40.9063 30.9452H52.2646C52.7074 26.1185 52.5303 22.6423 51.7332 20.5168C50.9361 18.3912 49.4084 17.3285 47.15 17.3285Z" fill="#FFFFFF"/>
<path d="M64.3427 48.9459V48.2816L65.2726 48.0159C66.8225 47.5731 67.5975 46.4882 67.5975 44.7612V23.9708C67.5975 22.9966 67.4425 22.2881 67.1325 21.8452C66.8225 21.3581 66.2247 21.026 65.3391 20.8489L64.3427 20.5832V19.919L75.7011 16.0664L76.3653 16.7307L76.8967 20.716C78.4466 19.3433 80.1957 18.2141 82.1441 17.3285C84.0925 16.4428 86.0188 16 87.9229 16C90.8455 16 93.0818 16.7971 94.6317 18.3912C96.2258 19.9854 97.0229 22.4209 97.0229 25.6978V44.8276C97.0229 46.5546 97.8642 47.6395 99.547 48.0824L100.145 48.2816V48.9459H84.4689V48.2816L85.3324 48.0159C86.8823 47.5288 87.6572 46.4439 87.6572 44.7612V23.5722C87.6572 20.7382 86.2402 19.3212 83.4062 19.3212C81.4577 19.3212 79.3322 20.2954 77.0295 22.2438V44.8276C77.0295 46.5546 77.8045 47.6395 79.3543 48.0824L79.9521 48.2816V48.9459H64.3427Z" fill="#FFFFFF"/>
<path d="M119.549 49.9422C116.183 49.9422 113.261 49.2558 110.781 47.8831C108.301 46.4661 106.375 44.4734 105.002 41.905C103.674 39.3367 103.009 36.3255 103.009 32.8715C103.009 29.4175 103.718 26.4284 105.135 23.9044C106.596 21.3803 108.567 19.4319 111.046 18.0591C113.571 16.6864 116.405 16 119.549 16C122.693 16 125.505 16.6864 127.984 18.0591C130.464 19.3876 132.413 21.3139 133.83 23.8379C135.291 26.362 136.022 29.3732 136.022 32.8715C136.022 36.3698 135.335 39.4031 133.962 41.9714C132.634 44.4955 130.73 46.4661 128.25 47.8831C125.815 49.2558 122.914 49.9422 119.549 49.9422ZM119.549 48.6138C121.099 48.6138 122.338 48.1709 123.268 47.2853C124.198 46.3996 124.862 44.8276 125.261 42.5692C125.704 40.3109 125.925 37.1226 125.925 33.0043C125.925 28.8418 125.704 25.6314 125.261 23.373C124.862 21.1146 124.198 19.5426 123.268 18.6569C122.338 17.7713 121.099 17.3285 119.549 17.3285C117.999 17.3285 116.737 17.7713 115.763 18.6569C114.833 19.5426 114.146 21.1146 113.703 23.373C113.305 25.6314 113.106 28.8418 113.106 33.0043C113.106 37.1226 113.305 40.3109 113.703 42.5692C114.146 44.8276 114.833 46.3996 115.763 47.2853C116.737 48.1709 117.999 48.6138 119.549 48.6138Z" fill="#FFFFFF"/>
<path d="M150.4 44.7529C150.4 47.6189 148.077 49.9422 145.211 49.9422C142.345 49.9422 140.021 47.6189 140.021 44.7529C140.021 41.8869 142.345 39.5636 145.211 39.5636C148.077 39.5636 150.4 41.8869 150.4 44.7529Z" fill="#FFFFFF"/>
</svg>
